<?xml version="1.0" standalone="no"?>
<!DOCTYPE svg PUBLIC "-//W3C//DTD SVG 20010904//EN"
 "http://www.w3.org/TR/2001/REC-SVG-20010904/DTD/svg10.dtd">
<svg version="1.0" xmlns="http://www.w3.org/2000/svg"
 width="500.000000pt" height="500.000000pt" viewBox="0 0 500.000000 500.000000"
 preserveAspectRatio="xMidYMid meet">
<metadata>
Created by potrace 1.14, written by Peter Selinger 2001-2017
</metadata>
<g transform="translate(0.000000,500.000000) scale(0.100000,-0.100000)"
fill="#000000" stroke="none">
<path d="M2340 2793 c-91 -220 -85 -210 -125 -205 -19 2 -48 -1 -65 -6 -22 -8
-32 -8 -37 1 -12 18 -12 300 -1 315 8 9 2 12 -26 12 -27 0 -35 -3 -30 -12 11
-17 13 -277 3 -305 -8 -21 -5 -23 24 -23 32 0 32 0 -14 -23 -77 -37 -162 -109
-189 -160 -23 -44 -24 -49 -10 -75 9 -15 35 -36 59 -48 l44 -20 -74 -22 c-140
-41 -314 -83 -369 -90 -30 -4 -50 -10 -45 -13 9 -5 69 3 180 26 53 11 249 63
290 78 37 13 44 13 90 -9 28 -12 59 -31 68 -42 17 -19 16 -21 -40 -68 -156
-131 -212 -224 -135 -224 82 0 221 151 222 241 0 20 13 36 55 68 54 41 55 41
55 17 0 -13 -8 -32 -17 -42 -11 -10 -14 -19 -7 -21 8 -3 5 -37 -8 -111 -10
-59 -21 -131 -24 -161 -10 -83 11 -54 26 36 8 43 14 83 16 88 1 6 9 43 18 84
8 41 17 75 18 76 48 31 67 50 83 78 38 71 -14 123 -55 55 l-20 -33 7 54 c8 66
-11 63 -21 -3 -6 -39 -14 -49 -59 -83 -29 -22 -57 -42 -64 -46 -6 -4 -34 9
-63 28 -29 19 -57 35 -63 35 -7 0 -7 4 1 12 20 20 13 27 -16 17 -38 -13 -117
20 -134 55 -9 22 -7 31 15 65 49 74 200 169 282 179 38 4 43 2 49 -19 5 -19 8
-21 15 -9 5 8 7 18 5 22 -3 4 6 8 19 8 19 0 24 4 20 18 -2 10 5 39 16 65 l20
47 60 0 60 0 21 -46 c11 -26 20 -55 20 -65 0 -15 7 -19 38 -19 21 0 32 4 25 8
-7 4 -42 80 -78 167 -36 88 -70 164 -74 168 -4 4 -32 -50 -61 -120z m94 -65
c-5 -8 -94 -8 -94 0 0 2 10 31 23 63 l22 59 26 -57 c15 -32 25 -61 23 -65z
m-64 -444 c0 -20 -18 -55 -41 -76 -25 -25 -29 -23 -19 13 17 59 60 104 60 63z
m-252 -230 c-39 -79 -167 -178 -195 -150 -13 13 67 105 157 180 63 52 75 43
38 -30z"/>
<path d="M3195 2758 c-37 -90 -72 -169 -77 -175 -8 -10 -3 -13 21 -13 21 0 30
4 25 11 -3 6 2 35 12 65 l18 54 63 0 64 0 19 -46 c11 -25 20 -54 20 -65 0 -15
7 -19 38 -19 22 0 32 3 24 8 -6 5 -34 62 -61 128 -68 164 -90 214 -94 214 -2
0 -34 -73 -72 -162z m88 35 c10 -27 17 -52 17 -58 1 -5 -20 -11 -45 -12 -25
-1 -45 0 -45 2 0 12 44 115 49 115 4 0 15 -21 24 -47z"/>
<path d="M1625 2740 l0 -171 78 2 c133 3 195 52 204 158 9 115 -61 177 -204
180 l-78 2 0 -171z m164 132 c53 -26 76 -65 76 -125 0 -101 -39 -144 -140
-154 l-55 -6 0 152 0 151 43 0 c23 0 57 -8 76 -18z"/>
<path d="M2680 2895 c12 -14 16 -298 4 -316 -3 -5 10 -9 28 -9 22 0 29 3 20 9
-10 6 -14 39 -14 130 0 67 2 124 4 126 2 3 40 -37 84 -88 43 -50 89 -103 101
-117 12 -14 31 -36 42 -50 l20 -25 1 155 c0 85 3 165 6 178 5 19 2 22 -20 22
-22 0 -25 -3 -18 -17 7 -14 10 -227 3 -241 0 -2 -51 55 -113 127 -87 102 -117
131 -136 131 -20 0 -22 -2 -12 -15z"/>
<path d="M3017 2349 c-23 -14 -45 -59 -41 -87 3 -16 -10 -36 -46 -74 -42 -43
-52 -49 -65 -38 -26 21 -18 65 20 110 37 44 45 70 20 70 -14 0 -23 -11 -73
-86 -31 -48 -92 -118 -97 -113 -2 2 -14 26 -28 53 -20 40 -23 54 -14 73 5 13
16 24 24 24 7 1 18 3 23 4 6 1 13 3 18 4 4 1 -1 6 -10 11 -25 15 -61 -5 -83
-46 -10 -19 -38 -53 -62 -75 -37 -34 -47 -38 -59 -28 -23 19 -9 77 27 113 31
32 39 66 15 66 -16 0 -50 -43 -60 -77 -7 -23 -74 -93 -90 -93 -5 0 -6 22 -3
50 6 50 -5 69 -17 28 -9 -37 -7 -73 6 -86 17 -17 22 -15 57 14 17 14 32 21 32
15 1 -6 2 -16 3 -22 0 -6 9 -17 20 -24 24 -18 60 -1 103 48 l30 34 28 -52 c29
-54 29 -57 -4 -111 -28 -46 -31 -79 -7 -79 27 0 56 44 63 95 3 24 14 53 24 64
10 12 27 32 38 45 l21 24 0 -26 c0 -15 9 -32 21 -41 19 -13 25 -13 50 -1 15 8
41 31 58 51 26 32 101 73 101 55 0 -3 -7 -36 -16 -73 -18 -73 -14 -98 13 -98
26 0 100 100 118 158 12 40 -9 23 -38 -31 -34 -63 -74 -114 -83 -105 -4 4 2
41 11 83 20 83 28 92 97 100 24 3 50 8 58 10 8 3 33 7 55 10 22 3 49 7 60 9
50 10 166 19 227 18 91 -1 139 -16 190 -59 35 -29 44 -32 46 -19 5 24 -35 53
-97 72 -54 16 -230 22 -311 11 -19 -3 -57 -8 -85 -12 -27 -4 -61 -9 -75 -11
-14 -2 -41 -7 -60 -10 -66 -11 -115 -22 -132 -29 -16 -6 -16 -4 -1 34 18 46
10 66 -20 50z m-2 -50 c-9 -17 -19 -28 -22 -25 -6 6 23 56 32 56 3 0 -2 -14
-10 -31z m-294 -261 c-5 -13 -17 -30 -26 -38 -15 -12 -14 -7 4 29 23 45 38 52
22 9z"/>
<path d="M2436 2311 c-4 -7 -5 -15 -2 -18 9 -9 19 4 14 18 -4 11 -6 11 -12 0z"/>
<path d="M1250 2174 c0 -21 76 -52 144 -58 31 -3 54 -2 52 3 -3 4 -19 8 -36 9
-43 1 -70 11 -107 38 -37 28 -53 30 -53 8z"/>
</g>
</svg>
